<?xml version="1.0" standalone="no"?>
<!DOCTYPE svg PUBLIC "-//W3C//DTD SVG 20010904//EN"
 "http://www.w3.org/TR/2001/REC-SVG-20010904/DTD/svg10.dtd">
<svg version="1.0" xmlns="http://www.w3.org/2000/svg"
 width="1000.000000pt" height="1000.000000pt" viewBox="0 0 1000.000000 1000.000000"
 preserveAspectRatio="xMidYMid meet">
<metadata>
Created by potrace 1.14, written by Peter Selinger 2001-2017
</metadata>
<g transform="translate(0.000000,1000.000000) scale(0.100000,-0.100000)"
fill="#000000" stroke="none">
<path d="M2820 7929 c-322 -42 -603 -181 -836 -413 -206 -207 -332 -438 -396
-729 l-23 -102 0 -1385 0 -1385 23 -102 c64 -291 190 -522 396 -729 153 -152
334 -270 516 -334 36 -13 66 -24 68 -26 2 -1 -85 -196 -193 -434 -108 -238
-194 -434 -192 -437 3 -2 238 77 523 177 913 320 1055 380 1327 559 l107 70
1527 4 1528 3 97 22 c290 66 519 192 724 396 206 207 332 438 396 729 l23 102
0 1385 0 1385 -23 102 c-64 291 -190 522 -396 729 -205 204 -433 329 -724 396
l-97 22 -2155 2 c-1185 1 -2184 -2 -2220 -7z m4344 -444 c47 -8 114 -25 149
-36 73 -25 220 -99 260 -131 l28 -23 -113 -170 c-314 -470 -576 -793 -904
-1115 -276 -271 -528 -457 -798 -590 -380 -187 -738 -241 -1109 -166 -321 65
-660 237 -992 502 -148 118 -502 474 -656 659 -69 83 -180 223 -247 313 -129
173 -382 544 -382 561 0 25 175 122 290 160 151 51 70 49 2301 50 1818 1 2098
-1 2173 -14z m782 -666 c55 -157 54 -136 54 -1519 0 -1094 -2 -1290 -15 -1364
-74 -421 -400 -747 -821 -821 -75 -13 -299 -15 -1628 -15 l-1541 0 -95 -68
c-228 -165 -448 -273 -812 -401 l-87 -30 19 42 c10 23 61 135 113 250 l95 207
-153 0 c-234 0 -363 28 -535 116 -274 140 -471 410 -525 720 -23 130 -23 2598
0 2728 15 86 45 186 72 239 l14 28 91 -133 c500 -732 989 -1251 1498 -1589
273 -182 630 -336 902 -388 625 -121 1233 37 1835 476 457 332 937 857 1368
1496 l99 147 14 -26 c8 -15 25 -58 38 -95z"/>
</g>
</svg>
